<?xml version="1.0" encoding="iso-8859-1"?>
<!-- Generator: Adobe Illustrator 23.1.1, SVG Export Plug-In . SVG Version: 6.00 Build 0)  -->
<svg version="1.1" id="Glyph" xmlns="http://www.w3.org/2000/svg" xmlns:xlink="http://www.w3.org/1999/xlink" x="0px" y="0px"
	 viewBox="0 0 64 64" style="enable-background:new 0 0 64 64;" xml:space="preserve">
<path style="fill:#3A4249;" d="M37,39h2c3.432,0,6.993-1.821,10.586-5.414L51,32.172l1.414,1.414
	c0.547,0.547,1.093,1.039,1.639,1.504C54.666,32.83,55,30.454,55,28C55,13.088,42.912,1,28,1S1,13.088,1,28s12.088,27,27,27
	c3.799,0,7.412-0.788,10.691-2.204C37.612,49.768,37,45.963,37,41V39z M15,35V21l13-8l13,8v14l-13,8L15,35z"/>
<rect x="20" y="24" style="fill:#3A4249;" width="2" height="8"/>
<path style="fill:#3A4249;" d="M25,32h6v-8h-6V32z M27,26h2v4h-2V26z"/>
<rect x="34" y="24" style="fill:#3A4249;" width="2" height="8"/>
<path style="fill:#3A4249;" d="M39,41c0,14,5,18,12,22c7-4,12-8,12-22c-4,0-8-2-12-6C47,39,43,41,39,41z M57.707,44.707L50,52.414
	l-3.707-3.707l1.414-1.414L50,49.586l6.293-6.293L57.707,44.707z"/>
</svg>
